<?xml version="1.0" standalone="no"?>
<!DOCTYPE svg PUBLIC "-//W3C//DTD SVG 20010904//EN"
 "http://www.w3.org/TR/2001/REC-SVG-20010904/DTD/svg10.dtd">
<svg version="1.0" xmlns="http://www.w3.org/2000/svg"
 width="738.000000pt" height="824.000000pt" viewBox="0 0 738.000000 824.000000"
 preserveAspectRatio="xMidYMid meet">

<g transform="translate(0.000000,824.000000) scale(0.100000,-0.100000)"
fill="#000000" stroke="none">
<path d="M3442 7889 c-13 -13 -37 -23 -66 -26 -26 -3 -52 -13 -62 -24 -9 -11
-23 -19 -30 -19 -14 0 -74 -38 -112 -70 -13 -11 -33 -20 -45 -20 -12 0 -28 -9
-35 -20 -7 -11 -18 -20 -26 -20 -7 0 -24 -8 -37 -19 -13 -10 -35 -22 -49 -26
-14 -4 -31 -16 -38 -26 -7 -11 -22 -19 -32 -19 -11 0 -24 -9 -30 -20 -6 -11
-17 -20 -24 -20 -7 0 -24 -8 -37 -19 -13 -10 -35 -22 -49 -26 -14 -4 -33 -16
-43 -26 -10 -11 -28 -19 -41 -19 -13 0 -35 -11 -50 -25 -15 -14 -34 -25 -42
-25 -7 0 -23 -9 -34 -20 -11 -11 -31 -20 -45 -20 -14 0 -29 -8 -35 -20 -6 -12
-21 -20 -35 -20 -13 0 -36 -11 -51 -25 -15 -14 -31 -25 -37 -25 -5 0 -31 -18
-57 -40 -26 -22 -56 -40 -67 -40 -11 0 -29 -11 -41 -25 -12 -14 -32 -25 -45
-25 -13 0 -32 -9 -42 -20 -10 -11 -26 -20 -35 -20 -9 0 -25 -9 -34 -19 -10
-11 -29 -22 -44 -26 -14 -3 -32 -15 -40 -26 -7 -10 -23 -19 -35 -19 -12 0 -28
-9 -34 -19 -7 -11 -25 -22 -41 -26 -17 -3 -38 -15 -48 -26 -9 -10 -25 -19 -35
-19 -10 0 -23 -9 -29 -20 -6 -11 -19 -20 -30 -20 -11 0 -24 -9 -30 -19 -5 -11
-20 -23 -32 -27 -13 -4 -34 -15 -47 -25 -13 -11 -33 -19 -45 -19 -12 0 -26 -8
-33 -19 -6 -10 -28 -22 -47 -25 -20 -4 -36 -11 -36 -17 0 -5 -15 -16 -33 -24
-19 -8 -39 -21 -47 -29 -7 -9 -22 -16 -35 -16 -12 0 -30 -9 -40 -20 -10 -11
-26 -20 -36 -20 -10 0 -30 -11 -46 -24 -15 -13 -38 -26 -50 -30 -11 -4 -24
-13 -27 -21 -3 -8 -12 -15 -19 -15 -8 0 -26 -11 -41 -25 -15 -14 -38 -25 -50
-25 -13 0 -26 -6 -29 -14 -3 -8 -22 -19 -41 -26 -20 -6 -36 -16 -36 -21 0 -5
-16 -15 -35 -23 -19 -8 -35 -20 -35 -25 0 -6 -16 -13 -35 -17 -20 -3 -40 -15
-46 -25 -5 -11 -20 -19 -33 -19 -13 0 -31 -9 -40 -19 -10 -11 -32 -23 -50 -27
-17 -4 -37 -15 -44 -25 -7 -11 -22 -19 -32 -19 -11 0 -24 -9 -30 -20 -6 -11
-16 -20 -23 -20 -7 0 -35 -20 -62 -45 -28 -25 -53 -45 -57 -45 -5 0 -8 -6 -8
-13 0 -6 -14 -25 -30 -41 -17 -16 -40 -45 -51 -65 -11 -20 -31 -54 -44 -76
-13 -22 -24 -49 -24 -60 -1 -11 -9 -32 -18 -45 -17 -24 -18 -127 -18 -1821 0
-1697 1 -1796 17 -1813 10 -10 18 -27 18 -38 0 -50 194 -285 250 -303 11 -3
20 -12 20 -18 0 -7 12 -18 27 -24 28 -12 35 -16 104 -60 19 -13 43 -23 52 -23
10 0 25 -9 34 -20 10 -11 25 -20 34 -20 10 0 31 -11 47 -25 17 -14 34 -25 39
-25 6 0 18 -8 27 -19 9 -10 30 -21 47 -25 17 -3 29 -12 29 -21 0 -9 12 -18 29
-21 17 -4 38 -15 47 -25 9 -11 25 -19 34 -19 9 0 25 -9 35 -20 10 -11 26 -20
35 -20 9 0 31 -11 50 -25 19 -14 42 -25 52 -25 10 0 23 -9 30 -20 7 -11 20
-20 28 -20 8 0 26 -9 40 -20 14 -11 30 -20 37 -20 6 0 25 -11 41 -25 17 -14
39 -25 49 -25 11 0 28 -9 38 -20 10 -11 22 -20 28 -20 15 0 105 -62 111 -76 3
-8 16 -14 28 -14 13 0 36 -11 52 -25 16 -14 38 -25 48 -25 10 0 21 -6 24 -14
3 -8 18 -18 34 -21 15 -3 36 -15 46 -26 9 -10 27 -19 39 -19 13 0 29 -7 36
-16 8 -9 33 -25 56 -35 24 -10 43 -23 43 -29 0 -5 8 -10 18 -10 11 0 27 -9 37
-20 10 -11 27 -20 37 -20 10 0 30 -11 44 -25 14 -14 31 -25 40 -25 8 0 22 -9
31 -20 10 -11 25 -20 34 -20 9 0 24 -9 34 -20 10 -11 24 -20 31 -20 7 0 26
-11 42 -25 17 -14 36 -25 44 -25 8 0 23 -9 33 -20 10 -11 26 -20 35 -20 10 0
23 -7 30 -15 7 -8 30 -20 51 -25 21 -6 43 -20 49 -30 6 -11 20 -20 32 -20 12
0 29 -7 39 -16 18 -16 61 -42 115 -68 17 -8 36 -22 44 -30 7 -9 21 -16 31 -16
10 0 30 -11 45 -25 15 -14 32 -25 38 -25 6 0 22 -9 36 -20 14 -11 33 -20 42
-20 10 0 23 -9 30 -20 7 -11 20 -20 28 -20 9 0 31 -11 50 -25 19 -14 39 -25
46 -25 6 0 23 -9 37 -20 14 -11 32 -20 40 -20 7 0 22 -8 31 -19 9 -10 34 -21
55 -25 21 -3 48 -15 61 -26 13 -11 32 -20 42 -20 11 0 42 -7 69 -16 39 -13 74
-15 157 -11 107 5 129 10 233 53 31 13 63 24 71 24 8 0 23 9 33 20 10 11 25
20 33 20 8 0 47 20 86 45 40 25 79 45 86 45 7 0 21 7 30 15 8 8 43 28 75 46
33 17 71 40 84 50 13 11 29 19 36 19 7 0 19 7 26 17 8 9 29 22 47 30 18 7 55
29 81 48 27 19 54 35 61 35 7 0 25 11 42 25 16 14 38 25 48 25 9 0 23 7 30 15
6 8 42 29 78 46 37 18 78 41 91 51 13 10 30 18 37 18 8 0 35 16 60 35 26 20
61 42 78 49 17 7 37 20 45 29 7 10 21 17 31 17 10 0 23 7 30 15 7 8 40 29 73
46 34 17 72 39 85 50 14 10 33 19 42 19 10 0 23 7 30 15 6 8 49 33 93 56 45
23 99 50 120 60 20 11 37 23 37 28 0 5 13 14 30 19 16 6 51 27 76 46 26 20 52
36 59 36 7 0 24 9 38 21 15 11 57 36 94 56 91 48 123 66 153 85 14 9 36 19 50
23 14 5 29 14 35 21 5 7 38 26 71 43 34 17 67 38 74 46 7 8 17 15 22 15 10 0
24 8 156 91 34 21 69 39 76 39 7 0 26 10 42 22 15 13 50 33 77 45 27 13 63 34
81 48 107 86 230 241 257 323 6 20 17 44 23 52 40 50 40 30 43 1710 4 1509 0
1794 -23 1933 -3 20 -10 37 -15 37 -5 0 -20 25 -35 56 -31 66 -101 174 -112
174 -5 0 -21 18 -38 40 -16 22 -34 40 -41 40 -6 0 -20 10 -30 23 -10 12 -30
28 -45 34 -16 7 -28 17 -28 23 0 5 -9 10 -20 10 -10 0 -27 8 -37 19 -10 10
-37 22 -61 26 -26 4 -48 15 -55 26 -6 10 -20 19 -29 19 -10 0 -27 9 -38 20
-11 11 -25 20 -31 20 -6 0 -24 11 -41 25 -16 14 -38 25 -49 25 -10 0 -24 9
-31 20 -7 11 -20 20 -28 20 -9 0 -31 11 -50 25 -19 14 -39 25 -45 25 -7 0 -20
9 -30 20 -10 11 -26 20 -36 20 -11 0 -24 9 -31 20 -7 11 -20 20 -28 20 -9 0
-31 11 -50 25 -19 14 -42 25 -52 25 -10 0 -23 9 -30 20 -7 11 -21 20 -30 20
-9 0 -25 8 -35 19 -10 10 -34 24 -55 30 -20 7 -39 18 -42 26 -3 8 -13 15 -22
15 -9 0 -27 9 -41 20 -14 11 -34 20 -44 20 -10 0 -26 11 -35 25 -10 15 -26 25
-40 25 -13 0 -28 9 -34 20 -6 11 -17 20 -24 20 -7 0 -23 9 -36 20 -13 11 -29
20 -36 20 -7 0 -26 11 -42 25 -17 14 -42 25 -56 25 -15 0 -31 8 -38 20 -7 11
-21 20 -30 20 -10 0 -27 9 -38 20 -11 11 -27 20 -34 20 -8 0 -27 11 -42 25
-15 14 -35 25 -45 25 -11 0 -24 9 -31 20 -7 11 -19 20 -27 20 -15 0 -116 64
-126 80 -3 6 -15 10 -26 10 -11 0 -30 11 -43 25 -13 14 -31 25 -40 25 -9 0
-19 7 -22 15 -3 8 -21 17 -39 21 -19 3 -41 15 -51 25 -9 10 -25 19 -35 19 -10
0 -30 11 -45 25 -15 14 -37 25 -48 25 -12 0 -29 9 -39 20 -9 11 -25 20 -35 20
-11 0 -27 9 -37 20 -10 11 -27 20 -37 20 -10 0 -29 11 -42 25 -13 14 -30 25
-38 25 -8 0 -24 9 -36 20 -12 11 -25 20 -30 20 -5 0 -17 9 -26 19 -10 11 -28
22 -41 25 -14 4 -29 15 -35 26 -6 11 -21 20 -33 20 -13 0 -38 11 -57 25 -19
14 -40 25 -47 25 -8 0 -16 7 -19 15 -3 8 -21 17 -40 21 -19 3 -39 15 -45 25
-6 12 -21 19 -38 19 -16 0 -41 10 -57 23 -27 21 -37 22 -265 25 -232 3 -238 3
-257 -19z m-502 -1417 c38 -25 82 -49 118 -67 18 -8 35 -22 39 -30 3 -8 13
-15 22 -15 9 0 33 -11 53 -25 20 -14 40 -25 43 -25 4 0 18 -9 32 -20 14 -11
34 -20 44 -20 10 0 23 -9 29 -20 6 -11 19 -20 30 -20 10 0 32 -11 48 -25 17
-14 35 -25 42 -25 6 0 23 -9 37 -20 14 -11 33 -20 43 -20 9 0 25 -9 35 -20 10
-11 26 -20 35 -20 10 0 30 -10 45 -22 32 -25 77 -51 117 -68 14 -6 29 -17 32
-25 2 -7 18 -16 35 -20 17 -4 37 -14 43 -23 7 -10 24 -23 38 -30 85 -44 100
-53 100 -62 0 -5 16 -12 36 -16 19 -3 41 -15 47 -25 7 -11 21 -19 32 -19 12 0
36 -11 55 -25 19 -14 39 -25 45 -25 7 0 20 -9 30 -20 10 -11 26 -20 35 -20 9
0 25 -8 36 -18 10 -10 34 -24 52 -31 17 -7 32 -17 32 -22 0 -5 11 -11 24 -15
14 -3 32 -14 42 -25 9 -10 24 -19 32 -19 8 0 25 -11 38 -25 13 -14 32 -25 42
-25 10 0 27 -9 37 -20 10 -11 25 -20 34 -20 9 0 27 -9 41 -20 14 -11 33 -20
43 -20 9 0 25 -8 36 -19 10 -10 35 -24 54 -30 19 -7 38 -18 41 -26 3 -8 14
-15 24 -15 10 0 27 -9 37 -20 10 -11 26 -20 35 -20 9 0 27 -11 40 -25 13 -14
32 -25 41 -25 10 0 26 -8 36 -18 10 -10 30 -23 46 -30 15 -6 27 -16 27 -21 0
-5 11 -12 25 -15 13 -3 29 -15 35 -26 6 -11 19 -20 29 -20 10 0 30 -9 44 -20
33 -27 103 -27 137 0 14 11 30 20 36 20 6 0 21 11 34 25 13 14 31 25 41 25 10
0 21 5 24 10 6 10 106 69 193 115 21 11 51 29 68 41 16 11 50 30 75 41 25 12
51 28 58 37 8 9 23 16 35 16 12 0 38 12 57 26 47 35 97 56 137 56 40 0 73 -32
97 -96 16 -40 17 -73 11 -303 -12 -481 -19 -583 -38 -594 -10 -6 -18 -15 -18
-22 0 -26 -96 -107 -126 -107 -13 0 -28 -8 -33 -19 -6 -10 -22 -22 -37 -25
-14 -4 -35 -16 -47 -26 -11 -11 -26 -20 -33 -20 -7 0 -19 -8 -26 -19 -7 -10
-24 -22 -38 -26 -14 -4 -31 -16 -38 -26 -7 -11 -21 -19 -30 -19 -10 0 -25 -9
-35 -20 -10 -12 -29 -20 -47 -20 -19 0 -33 -7 -40 -19 -5 -11 -24 -23 -42 -26
-18 -4 -41 -16 -51 -26 -10 -11 -26 -19 -36 -19 -10 0 -30 -9 -44 -20 -14 -11
-34 -20 -46 -20 -11 0 -25 -9 -31 -20 -6 -11 -21 -22 -35 -26 -34 -8 -37 -25
-24 -123 7 -52 11 -201 10 -378 -2 -198 1 -298 9 -312 19 -36 17 -116 -2 -138
-10 -11 -18 -25 -18 -31 0 -21 -47 -62 -79 -68 -17 -4 -36 -15 -42 -25 -5 -11
-20 -19 -33 -19 -15 0 -27 -9 -34 -25 -6 -14 -20 -25 -29 -25 -10 0 -24 -9
-31 -20 -7 -11 -23 -20 -36 -20 -12 0 -31 -9 -41 -20 -10 -11 -26 -20 -37 -20
-10 0 -28 -11 -40 -25 -12 -14 -29 -25 -38 -25 -8 0 -23 -9 -33 -20 -9 -11
-26 -20 -37 -20 -10 0 -27 -8 -37 -19 -10 -10 -34 -22 -53 -26 -19 -4 -41 -16
-48 -26 -7 -11 -22 -19 -33 -19 -20 0 -92 -42 -121 -71 -9 -9 -23 -19 -29 -21
-10 -3 -13 -100 -11 -449 2 -494 0 -518 -57 -569 -18 -17 -38 -30 -44 -30 -7
0 -18 -9 -25 -20 -7 -11 -21 -20 -31 -20 -10 0 -26 -11 -35 -25 -10 -14 -26
-25 -39 -25 -12 0 -30 -9 -40 -20 -9 -11 -25 -20 -34 -20 -10 0 -24 -9 -31
-20 -7 -11 -19 -20 -28 -20 -9 0 -27 -11 -40 -25 -13 -14 -34 -25 -48 -25 -15
0 -30 -8 -36 -20 -6 -11 -21 -20 -33 -20 -12 0 -27 -8 -34 -19 -6 -10 -28 -22
-47 -25 -22 -4 -36 -13 -36 -22 0 -8 -13 -17 -30 -21 -17 -3 -35 -14 -41 -24
-5 -11 -21 -19 -34 -19 -13 0 -28 -6 -32 -14 -13 -22 -49 -36 -91 -36 -43 0
-102 17 -102 30 0 4 -11 11 -25 14 -13 3 -29 15 -35 26 -6 11 -20 20 -30 20
-11 0 -25 9 -32 20 -7 11 -20 20 -28 20 -9 0 -31 11 -50 25 -19 14 -41 25 -50
25 -8 0 -23 9 -33 20 -9 11 -25 20 -36 20 -29 0 -51 11 -51 24 0 7 -17 18 -39
24 -21 7 -44 19 -51 27 -7 8 -21 15 -31 15 -10 0 -24 9 -31 20 -7 11 -23 20
-35 20 -13 0 -33 11 -45 25 -12 14 -30 25 -39 25 -10 0 -21 5 -24 10 -8 13
-81 61 -117 77 -16 7 -28 19 -28 28 0 9 -9 15 -23 15 -13 0 -32 9 -42 20 -10
11 -28 20 -40 20 -12 0 -30 9 -40 20 -10 11 -26 20 -36 20 -10 0 -31 11 -47
25 -17 14 -37 25 -46 25 -9 0 -21 9 -28 20 -7 11 -18 20 -24 20 -21 0 -132 61
-138 75 -3 8 -14 15 -24 15 -10 0 -27 9 -37 20 -10 11 -24 20 -31 20 -7 0 -25
11 -41 23 -15 13 -40 27 -56 31 -15 3 -27 13 -27 21 0 10 -10 15 -29 15 -18 0
-41 10 -57 25 -15 14 -34 25 -43 25 -9 0 -27 9 -41 20 -14 11 -33 20 -42 20
-10 0 -23 9 -30 20 -7 11 -20 20 -30 20 -9 0 -30 11 -46 25 -17 14 -36 25 -44
25 -8 0 -23 9 -32 19 -10 11 -28 22 -42 25 -13 4 -24 11 -24 17 0 5 -14 15
-30 21 -17 5 -35 19 -41 29 -5 10 -18 19 -28 19 -10 0 -30 9 -44 20 -14 11
-32 20 -41 20 -9 0 -24 9 -33 20 -10 11 -23 20 -29 20 -7 0 -26 11 -42 25 -17
14 -37 25 -46 25 -9 0 -25 9 -36 20 -11 11 -26 20 -34 20 -7 0 -25 11 -40 25
-15 14 -34 25 -42 25 -7 0 -14 4 -14 9 0 5 -6 16 -13 23 -7 7 -21 27 -32 43
-19 29 -20 49 -21 455 -1 235 2 442 8 463 6 27 16 41 35 48 38 14 108 1 138
-27 14 -13 32 -24 39 -24 7 0 21 -9 31 -20 10 -11 23 -20 29 -20 6 0 22 -9 36
-20 14 -11 32 -20 41 -20 8 0 25 -11 37 -25 12 -14 30 -25 40 -25 11 0 27 -9
37 -20 10 -11 26 -20 35 -20 9 0 25 -9 34 -19 10 -10 33 -22 52 -25 18 -4 38
-16 44 -26 6 -12 21 -20 35 -20 14 0 29 -8 35 -20 6 -11 19 -20 29 -20 10 0
29 -8 42 -19 13 -10 34 -21 45 -25 12 -4 29 -15 39 -26 10 -11 28 -20 40 -20
12 0 32 -11 45 -25 13 -14 29 -25 35 -25 7 0 22 -9 35 -20 13 -11 29 -20 35
-20 7 0 23 -8 36 -18 13 -11 36 -22 52 -26 15 -3 27 -11 27 -16 0 -5 18 -19
40 -30 22 -11 58 -29 80 -40 22 -11 40 -25 40 -30 0 -6 9 -10 19 -10 11 0 33
-11 49 -25 17 -14 37 -25 46 -25 9 0 24 -9 33 -20 10 -11 24 -20 32 -20 15 0
116 -64 126 -80 3 -6 14 -10 24 -10 10 0 26 -9 36 -20 10 -11 23 -20 30 -20 7
0 22 -9 34 -19 13 -11 36 -23 52 -26 17 -4 35 -15 42 -26 6 -10 21 -19 32 -19
12 0 36 -11 55 -25 19 -14 40 -25 47 -25 8 0 16 -6 19 -14 3 -8 18 -18 34 -21
15 -3 36 -15 46 -26 9 -10 25 -19 36 -19 10 0 27 -9 37 -19 10 -10 28 -22 39
-25 11 -4 27 -15 37 -26 10 -11 24 -20 30 -20 7 0 18 -7 26 -16 7 -9 30 -22
50 -31 21 -8 40 -21 43 -29 3 -8 13 -14 22 -14 9 0 27 -9 41 -20 14 -11 33
-20 43 -20 9 0 25 -9 35 -20 23 -26 76 -26 99 -1 10 11 29 22 43 26 14 3 53
24 86 45 34 22 69 40 79 40 9 0 22 9 28 20 6 11 17 20 25 20 7 0 26 10 42 23
38 31 101 67 118 67 8 0 18 6 22 14 4 7 26 23 48 34 223 113 240 126 219 160
-6 9 -21 18 -32 20 -12 2 -27 11 -34 21 -7 10 -28 21 -46 24 -19 4 -45 16 -59
27 -14 11 -31 20 -38 20 -6 0 -20 9 -30 20 -10 11 -26 20 -36 20 -10 0 -26 9
-36 19 -10 11 -30 22 -45 26 -14 4 -34 15 -44 26 -9 10 -27 19 -39 19 -12 0
-30 9 -40 20 -10 11 -24 20 -31 20 -7 0 -18 9 -24 20 -6 11 -21 22 -35 26 -13
3 -31 14 -41 25 -9 10 -25 19 -34 19 -9 0 -26 9 -38 20 -12 11 -28 20 -36 20
-8 0 -28 11 -44 25 -17 14 -39 25 -51 25 -11 0 -25 9 -31 20 -6 11 -19 20 -29
20 -10 0 -29 8 -42 19 -13 10 -35 22 -49 26 -14 4 -33 16 -43 26 -10 11 -28
19 -41 19 -12 0 -32 11 -44 25 -12 14 -28 25 -35 25 -8 0 -22 9 -32 20 -10 11
-26 20 -36 20 -10 0 -23 9 -29 20 -6 11 -20 20 -31 20 -11 0 -30 11 -43 25
-13 14 -32 25 -42 25 -11 0 -27 9 -37 20 -9 11 -23 20 -30 20 -8 0 -22 9 -32
20 -10 11 -28 20 -41 20 -13 0 -35 11 -50 25 -15 14 -35 25 -46 25 -10 0 -26
9 -35 20 -10 11 -25 20 -34 20 -9 0 -26 9 -39 20 -13 11 -29 20 -37 20 -7 0
-23 11 -35 25 -12 14 -29 25 -38 25 -9 0 -25 9 -35 20 -10 11 -24 20 -32 20
-7 0 -21 9 -30 20 -10 11 -25 20 -34 20 -10 0 -31 11 -47 25 -17 14 -39 25
-50 25 -12 0 -27 8 -34 19 -7 10 -28 22 -45 25 -18 4 -35 12 -39 17 -3 5 -21
16 -40 24 -19 8 -34 21 -34 29 0 11 -10 16 -29 16 -18 0 -41 10 -57 25 -15 14
-30 25 -34 25 -3 0 -34 26 -68 58 l-62 59 0 460 c0 449 1 461 21 486 18 24 25
26 67 21 26 -4 63 -16 82 -28 19 -12 44 -27 55 -34 11 -7 31 -18 45 -24 14 -7
31 -21 38 -30 7 -10 21 -18 30 -18 9 0 30 -11 46 -25 16 -14 34 -25 41 -25 7
0 20 -9 30 -20 10 -11 25 -20 34 -20 9 0 24 -9 34 -20 9 -11 28 -20 42 -20 14
0 34 -11 47 -25 12 -14 32 -25 45 -25 13 0 31 -9 40 -20 10 -11 25 -20 35 -20
9 0 20 -5 24 -11 3 -6 27 -20 51 -31 24 -11 47 -26 50 -34 3 -8 15 -14 28 -14
12 0 30 -9 40 -20 10 -11 24 -20 30 -20 7 0 23 -9 37 -19 13 -11 36 -23 51
-26 14 -4 29 -16 32 -26 4 -11 16 -19 29 -19 13 0 31 -9 40 -19 10 -11 31 -23
46 -26 15 -3 36 -15 46 -26 9 -10 25 -19 34 -19 9 0 25 -9 35 -20 10 -11 26
-20 37 -20 10 0 27 -9 38 -20 11 -11 31 -22 44 -26 13 -3 32 -14 42 -25 9 -10
25 -19 35 -19 10 0 23 -9 29 -20 6 -11 19 -20 30 -20 10 0 31 -11 47 -24 16
-14 42 -28 57 -32 15 -3 30 -13 33 -20 3 -8 12 -14 20 -14 8 0 28 -11 45 -25
16 -14 38 -25 49 -25 10 0 24 -9 31 -20 7 -11 22 -20 34 -20 11 0 29 -9 39
-20 10 -11 23 -20 30 -20 6 0 26 -11 45 -25 19 -14 42 -25 52 -25 9 0 22 -9
28 -20 6 -11 18 -20 26 -20 8 0 32 -11 52 -25 20 -14 41 -25 47 -25 6 0 18 -9
28 -20 9 -11 26 -20 38 -20 12 0 23 -8 26 -20 3 -11 12 -20 19 -20 21 0 128
-59 137 -76 4 -7 18 -14 31 -14 13 0 35 -9 49 -20 27 -22 72 -27 83 -9 3 6 25
19 48 28 23 10 47 26 55 35 7 9 19 16 26 16 7 0 18 6 24 14 7 8 25 18 41 21
15 3 36 15 46 26 9 10 23 19 30 19 7 0 25 10 41 23 15 12 53 35 84 50 32 15
62 34 69 42 6 7 24 17 40 20 16 3 34 13 40 20 7 8 44 30 84 49 104 50 111 57
95 85 -8 12 -24 24 -37 28 -12 3 -27 14 -33 24 -5 11 -20 19 -34 19 -13 0 -37
11 -53 25 -17 14 -37 25 -45 25 -8 0 -26 9 -40 20 -14 11 -34 20 -45 20 -10 0
-27 9 -36 19 -10 11 -31 23 -48 26 -16 4 -32 13 -35 21 -3 8 -21 21 -39 29
-19 8 -34 19 -34 24 0 6 -8 11 -18 11 -10 0 -33 11 -52 25 -19 14 -42 25 -53
25 -10 0 -21 9 -24 20 -3 13 -14 20 -28 20 -12 0 -33 8 -46 19 -13 10 -34 21
-45 25 -12 4 -29 15 -39 26 -10 11 -26 20 -35 20 -9 0 -25 9 -35 20 -10 11
-26 20 -37 20 -10 0 -26 8 -36 18 -22 20 -63 45 -112 68 -19 9 -38 22 -43 29
-4 8 -21 16 -37 20 -16 4 -33 12 -37 19 -5 7 -25 21 -45 31 -21 9 -38 21 -38
26 0 5 -9 9 -20 9 -10 0 -27 9 -37 19 -10 11 -30 22 -45 26 -14 4 -34 15 -44
26 -9 10 -27 19 -39 19 -12 0 -30 9 -40 20 -10 11 -26 20 -36 20 -10 0 -31 11
-47 25 -17 14 -37 25 -46 25 -9 0 -19 7 -23 15 -3 9 -21 22 -39 30 -19 8 -34
19 -34 24 0 6 -9 11 -19 11 -11 0 -32 11 -47 25 -15 14 -38 25 -51 25 -16 0
-27 7 -30 20 -3 11 -13 20 -23 20 -9 0 -28 9 -42 19 -13 11 -37 23 -52 27 -14
3 -31 15 -37 25 -5 11 -20 19 -34 19 -13 0 -30 9 -37 19 -8 11 -27 23 -43 27
-17 4 -38 15 -48 25 -10 11 -24 19 -32 19 -8 0 -19 9 -25 20 -6 11 -20 20 -31
20 -12 0 -34 11 -51 25 -16 14 -36 25 -43 25 -25 0 -81 44 -108 86 l-27 42 0
455 c0 318 3 464 11 481 11 23 15 24 63 19 28 -3 62 -13 76 -21z"/>
</g>
</svg>
